# xmcd CD database file
#
# Track frame offsets:
#	150
#	22000
#	46817
#
# Disc length: 914 seconds
#
# Revision: 0
# Processed by: cddbd v1.5.1PL2 Copyright (c) Steve Scherf et al.
# Submitted via: CDex 1.51
#
DISCID=1c039003
DTITLE=中村雅俊 - ほんとうに愛ができること〜日本テレビ・読売テレビ系「ザ・ワイド」エンディング・テーマ〜
DYEAR=1993
DGENRE=J-POP
TTITLE0=ほんとうに愛ができること
TTITLE1=サヨナラは僕から言う
TTITLE2=ほんとうに愛ができること（オリジナル・カラオケ）
EXTD=YEAR: 1993/4/21
EXTT0=
EXTT1=
EXTT2=
PLAYORDER=
